<svg xmlns="http://www.w3.org/2000/svg" id="SvgjsSvg2642" width="3159.8772295346103" height="4096" version="1.1" xmlns:xlink="http://www.w3.org/1999/xlink" xmlns:svgjs="http://svgjs.com/svgjs"><defs id="SvgjsDefs2643"></defs><g id="SvgjsG2644" transform="translate(328, 328) scale(34.4)" opacity="1"><defs id="SvgjsDefs1695"></defs><g id="SvgjsG1696" transform="scale(0.3496064725399914)" opacity="1"><g id="SvgjsG1697" class="0c3Vsgy_7" transform="translate(-2.944332403578082, -2.633115947181086) scale(2.1407446725049297)" light-content="false" non-strokable="false" fill="#f5a623"><path d="M9.33 11.23a10 10 0 1 1 10 10 10 10 0 0 1-10-10zm50.5 18.31a3.47 3.47 0 0 0-3.23-3.85L30 24l-4.41-.08a.4.4 0 0 0-.32.15l-5.19 6.49a1 1 0 0 1-1.6 0L13.28 24a.41.41 0 0 0-.32-.16H9.85a8.47 8.47 0 0 0-8.42 9.43l2.46 18.58a7.2 7.2 0 0 0 4.68 5.95l4.15 38.08A3.29 3.29 0 0 0 16 98.79h6.58a3.29 3.29 0 0 0 3.27-2.92l1.94-17.8 4.65-43.53a.45.45 0 0 1 .42-.4l23.57-1.52a3.61 3.61 0 0 0 3.4-3.08zm17 17l-6.19-.9-2.77-5.61a1.22 1.22 0 0 0-2.18 0L63 45.68l-6.19.9a1.22 1.22 0 0 0-.68 2.07L60.58 53l-1.06 6.17a1.22 1.22 0 0 0 1.77 1.28l5.54-2.91 5.54 2.91a1.22 1.22 0 0 0 1.77-1.28L73.07 53l4.48-4.37a1.22 1.22 0 0 0-.67-2.05zm-26.17 39H37a2 2 0 0 0-2 2v9.24a2 2 0 0 0 2 2h13.71a2 2 0 0 0 2-2v-9.23a2 2 0 0 0-2-1.99zm23 0H60a2 2 0 0 0-2 2v9.24a2 2 0 0 0 2 2h13.67a2 2 0 0 0 2-2v-9.23a2 2 0 0 0-2-1.99zm23 0H82.94a2 2 0 0 0-2 2v9.24a2 2 0 0 0 2 2h13.69a2 2 0 0 0 2-2v-9.23a2 2 0 0 0-2-1.99zM48.5 67a2 2 0 0 0-2 2v9.24a2 2 0 0 0 2 2h13.69a2 2 0 0 0 2-2V69a2 2 0 0 0-2-2zm21 2v9.24a2 2 0 0 0 2 2h13.65a2 2 0 0 0 2-2V69a2 2 0 0 0-2-2H71.46a2 2 0 0 0-2 2z"></path></g><g id="SvgjsG1698" class="text" transform="translate(102.17937028516926, 285.53589529361767) scale(1)" light-content="false" fill="#f5a623"><path d="M-41.72 -19.97C-42.84 -21.45 -44.76 -22.73 -47.48 -23.83C-44.72 -25.02 -42.62 -26.67 -41.19 -28.77C-39.75 -30.87 -39.04 -33.13 -39.04 -35.57C-39.04 -39.1 -40.48 -41.78 -43.37 -43.62C-46.25 -45.46 -50.18 -46.37 -55.14 -46.37L-75.04 -46.3L-78.33 -13.6L-80.69 0C-73.01 0.33 -67.81 0.5 -65.09 0.5C-56.41 0.5 -50.06 -0.72 -46.05 -3.15C-42.04 -5.58 -40.04 -9.21 -40.04 -14.03C-40.04 -16.51 -40.6 -18.49 -41.72 -19.97ZM-53.78 -32.92C-53.78 -30.01 -55.36 -28.1 -58.5 -27.19L-63.87 -27.41L-62.44 -36.93L-61.22 -36.93C-59.22 -36.93 -57.69 -36.81 -56.64 -36.57C-55.59 -36.33 -54.85 -35.93 -54.43 -35.35C-54 -34.78 -53.78 -33.97 -53.78 -32.92ZM-56.43 -10.34C-57.72 -9.36 -59.46 -8.87 -61.65 -8.87C-62.27 -8.87 -63.78 -8.97 -66.16 -9.16L-65.66 -15.03L-65.23 -18.18L-58.15 -18.32C-56.86 -17.84 -55.93 -17.32 -55.36 -16.75C-54.78 -16.17 -54.5 -15.36 -54.5 -14.31C-54.5 -12.64 -55.14 -11.32 -56.43 -10.34Z M-7.76 -12.02L-3.9 -36.71L-17.35 -36.71L-19.93 -10.66L-21.86 0L-8.62 0Z M39.61 -9.88L39.04 -10.73L27.87 -10.73L27.95 -12.02L31.74 -36.71L18.28 -36.71L15.78 -10.66L13.78 0L37.61 0Z M84.34 -35.78L83.84 -36.71L54.35 -36.71L52.42 -27.12L53.07 -26.19L61.3 -26.62L61.58 -26.62L59.94 -10.66L58 0L71.17 0L72.1 -12.02L74.18 -26.62L74.46 -26.62L82.48 -26.19Z"></path></g></g></g></svg>